<svg version="1.1" id="Layer_1" xmlns="http://www.w3.org/2000/svg" xmlns:xlink="http://www.w3.org/1999/xlink" x="0px" y="0px"
	 width="100%" viewBox="0 0 1024 1024" enable-background="new 0 0 1024 1024" xml:space="preserve">
<path fill="#000000" opacity="1.000000" stroke="none" 
	d="
M550.978088,58.938538 
	C613.979187,93.801788 676.731689,128.355164 739.313965,163.214279 
	C775.116272,183.156601 810.715759,203.463135 846.873535,222.761490 
	C849.395081,224.107346 850.355530,225.821625 850.348145,228.702591 
	C850.251038,266.365753 850.266907,304.029175 850.229553,341.692505 
	C850.228271,342.962555 850.593933,344.369202 849.449402,345.437256 
	C847.979553,345.903076 846.864746,345.052063 845.725891,344.419800 
	C791.544861,314.342285 737.245483,284.475098 683.228760,254.105316 
	C630.225891,224.305603 576.972412,194.963379 523.717712,165.620865 
	C520.508240,163.852493 517.029541,162.495026 514.041931,160.419708 
	C509.486938,157.255554 505.531494,157.662445 500.766479,160.318115 
	C453.915894,186.429230 406.865875,212.183212 360.060242,238.374130 
	C328.662964,255.943039 297.600372,274.109375 266.297516,291.848663 
	C262.448761,294.029724 261.050781,296.660980 261.056030,301.018219 
	C261.136383,367.511871 261.074707,434.005676 261.052399,500.499451 
	C261.048309,512.664856 261.252686,524.834167 260.993378,536.993835 
	C260.889893,541.845398 262.849304,544.566284 266.967255,546.810852 
	C301.341125,565.547424 335.602509,584.490112 369.958191,603.260193 
	C400.658691,620.033142 431.471130,636.601440 462.135956,653.438965 
	C466.114349,655.623413 469.272797,655.611511 473.207855,653.430847 
	C498.851349,639.219543 524.561279,625.126038 550.361511,611.201599 
	C554.913940,608.744629 556.789124,605.607117 556.684387,600.476929 
	C556.456543,589.316467 556.643738,578.147095 556.705872,566.981689 
	C556.715637,565.213867 556.382751,563.328430 557.458740,561.932068 
	C559.004150,561.242859 559.993347,561.922363 561.015381,562.475220 
	C587.389587,576.741638 613.736389,591.059204 640.177490,605.200562 
	C643.392822,606.920227 644.560303,608.814026 644.506470,612.537476 
	C644.243591,630.699158 644.232178,648.866943 644.396179,667.030212 
	C644.432373,671.036011 643.188538,673.322876 639.594849,675.252014 
	C584.253540,704.960693 529.811218,736.268127 475.792297,768.299561 
	C468.808746,772.440674 463.634674,772.921448 456.339966,769.004883 
	C402.034088,739.847839 347.938629,710.311523 294.002563,680.477600 
	C251.291840,656.852844 208.516617,633.343201 165.632645,610.035278 
	C160.440460,607.213257 158.516403,604.130127 158.478027,598.087952 
	C157.720444,478.770844 157.872253,359.452271 157.562943,240.134720 
	C157.549332,234.881531 159.312668,232.147659 163.801758,229.632294 
	C245.336182,183.946899 326.761749,138.067337 408.248627,92.297005 
	C439.477081,74.756317 470.843842,57.461498 502.036499,39.857826 
	C506.971344,37.072819 510.878052,36.431240 516.134155,39.631779 
	C527.361206,46.468197 539.118286,52.434196 550.978088,58.938538 
z"/>
<path fill="#000000" opacity="1.000000" stroke="none" 
	d="
M746.937012,625.000000 
	C746.935120,597.502441 746.834961,570.504211 747.026062,543.508057 
	C747.060059,538.711243 745.415344,536.148071 741.161743,533.824646 
	C664.701050,492.059814 587.908569,450.894012 512.169556,407.824341 
	C505.253571,403.891479 499.661346,403.050903 493.053833,407.640198 
	C487.731750,411.336731 481.993103,414.443481 476.371582,417.694916 
	C473.289917,419.477325 472.246765,421.906647 472.261261,425.493713 
	C472.398529,459.490173 472.370117,493.487335 472.363495,527.484314 
	C472.363129,529.459229 472.693176,531.487244 471.831848,533.420105 
	C469.965240,534.227783 468.640289,532.920898 467.257538,532.165588 
	C433.193176,513.558838 399.157867,494.898926 365.076935,476.322601 
	C362.210114,474.759949 360.591003,473.089813 360.582733,469.441528 
	C360.510162,437.450195 360.390625,405.456573 359.863953,373.470581 
	C359.750183,366.562897 362.090210,362.631744 368.171570,359.324585 
	C409.148956,337.040497 449.939423,314.412720 490.791168,291.897614 
	C491.520721,291.495514 492.372711,291.237183 492.977173,290.698242 
	C501.082733,283.470367 508.396698,285.211761 517.487549,290.350006 
	C584.926636,328.467468 652.765320,365.873962 720.699829,403.107391 
	C761.899597,425.688080 803.311157,447.869385 844.703979,470.087280 
	C848.961548,472.372528 850.426270,475.008881 850.419189,479.798431 
	C850.303833,557.791443 850.335571,635.784851 850.429260,713.778015 
	C850.460693,739.937195 850.667847,766.097412 851.020569,792.254089 
	C851.080566,796.705750 849.452454,799.172180 845.663635,801.329407 
	C788.483948,833.885071 731.250854,866.350342 674.293945,899.292664 
	C631.182312,924.227295 588.452026,949.820923 545.536133,975.094482 
	C534.483887,981.603333 523.345825,987.966797 512.305786,994.496094 
	C509.458984,996.179810 506.951294,996.479309 503.952209,994.705872 
	C471.118134,975.289185 437.136292,957.852905 404.947449,937.321350 
	C404.128235,936.798889 403.377930,936.168335 402.648010,935.627075 
	C402.864105,932.844604 405.173981,932.479309 406.782440,931.563721 
	C472.657257,894.065125 538.565491,856.625305 604.445862,819.136475 
	C650.199829,793.100464 695.885254,766.943542 741.709778,741.032654 
	C746.038025,738.585327 747.185852,735.583984 747.162842,730.990723 
	C746.986572,695.827698 746.990295,660.663696 746.937012,625.000000 
z"/>
</svg>