<?xml version="1.0" encoding="UTF-8" standalone="no"?>
<!-- Created with Inkscape (http://www.inkscape.org/) -->

<svg
   width="225.05708"
   height="75.107971"
   viewBox="0 0 225.05708 75.107971"
   version="1.1"
   id="svg1"
   inkscape:version="1.3.2 (091e20ef0f, 2023-11-25)"
   sodipodi:docname="drawing.svg"
   xml:space="preserve"
   xmlns:inkscape="http://www.inkscape.org/namespaces/inkscape"
   xmlns:sodipodi="http://sodipodi.sourceforge.net/DTD/sodipodi-0.dtd"
   xmlns="http://www.w3.org/2000/svg"
   xmlns:svg="http://www.w3.org/2000/svg"><sodipodi:namedview
     id="namedview1"
     pagecolor="#ffffff"
     bordercolor="#000000"
     borderopacity="0.25"
     inkscape:showpageshadow="2"
     inkscape:pageopacity="0.0"
     inkscape:pagecheckerboard="0"
     inkscape:deskcolor="#d1d1d1"
     inkscape:document-units="px"
     showguides="false"
     inkscape:zoom="1.1408956"
     inkscape:cx="772.20037"
     inkscape:cy="206.41678"
     inkscape:window-width="1366"
     inkscape:window-height="699"
     inkscape:window-x="0"
     inkscape:window-y="0"
     inkscape:window-maximized="1"
     inkscape:current-layer="layer1" /><defs
     id="defs1" /><g
     inkscape:label="Layer 1"
     inkscape:groupmode="layer"
     id="layer1"
     transform="translate(-198.64424,-285.78726)"><g
       id="g90"
       transform="matrix(0.07836679,0,0,0.07836679,186.29657,282.84941)"><path
         fill="#000000"
         opacity="1"
         stroke="none"
         d="m 550.97809,58.938538 c 63.0011,34.86325 125.7536,69.416622 188.33588,104.275742 35.8023,19.94232 71.40179,40.24885 107.55956,59.54721 2.52155,1.34586 3.482,3.06013 3.47462,5.9411 -0.0971,37.66316 -0.0812,75.32658 -0.1186,112.98991 -10e-4,1.27005 0.36438,2.6767 -0.78015,3.74476 -1.46985,0.46582 -2.58465,-0.3852 -3.72351,-1.01746 C 791.54486,314.34228 737.24548,284.4751 683.22876,254.10532 630.22589,224.3056 576.97241,194.96338 523.71771,165.62086 c -3.20947,-1.76837 -6.68817,-3.12583 -9.67578,-5.20115 -4.55499,-3.16416 -8.51044,-2.75727 -13.27545,-0.1016 -46.85059,26.11112 -93.9006,51.8651 -140.70624,78.05602 -31.39728,17.56891 -62.45987,35.73524 -93.76272,53.47453 -3.84876,2.18106 -5.24674,4.81232 -5.24149,9.16956 0.0803,66.49365 0.0187,132.98746 -0.004,199.48123 -0.004,12.16541 0.20029,24.33472 -0.059,36.49438 -0.10349,4.85157 1.85592,7.57245 5.97388,9.81702 34.37386,18.73657 68.63525,37.67926 102.99093,56.44934 30.7005,16.77295 61.51294,33.34125 92.17777,50.17878 3.97839,2.18444 7.13684,2.17254 11.07189,-0.008 25.6435,-14.21131 51.35343,-28.30481 77.15366,-42.22925 4.55243,-2.45697 6.42761,-5.59448 6.32288,-10.72467 -0.22785,-11.16046 -0.0407,-22.32983 0.0215,-33.49524 0.01,-1.76782 -0.32312,-3.65326 0.75287,-5.04962 1.54541,-0.68921 2.53461,-0.01 3.55664,0.54315 26.37421,14.26642 52.72101,28.58398 79.16211,42.72534 3.21533,1.71967 4.38281,3.61347 4.32898,7.33692 -0.26288,18.16168 -0.27429,36.32946 -0.11029,54.49273 0.0362,4.0058 -1.20764,6.29267 -4.80133,8.2218 -55.34131,29.70868 -109.78363,61.01612 -163.80255,93.04755 -6.98355,4.14111 -12.15763,4.62189 -19.45233,0.70532 -54.30588,-29.15704 -108.40134,-58.69336 -162.33741,-88.52728 -42.71072,-23.62476 -85.48594,-47.1344 -128.36992,-70.44232 -5.19218,-2.82202 -7.11624,-5.90515 -7.15461,-11.94733 -0.75759,-119.31711 -0.60578,-238.63568 -0.91509,-357.95323 -0.0136,-5.25319 1.74973,-7.98706 6.23882,-10.50243 81.53442,-45.68539 162.95999,-91.56495 244.44687,-137.335285 31.22845,-17.540688 62.59521,-34.835507 93.78787,-52.439179 4.93484,-2.785007 8.84155,-3.426586 14.09765,-0.226047 11.22706,6.836418 22.98414,12.802417 34.84394,19.306759 z"
         id="path1" /><path
         fill="#000000"
         opacity="1"
         stroke="none"
         d="m 746.93701,625 c -0.002,-27.49756 -0.10205,-54.49579 0.0891,-81.49194 0.034,-4.79682 -1.61072,-7.35999 -5.86432,-9.68341 -76.46069,-41.76484 -153.25317,-82.93064 -228.99218,-126.00031 -6.91599,-3.93286 -12.50821,-4.77344 -19.11573,-0.18414 -5.32208,3.69653 -11.06073,6.80328 -16.68225,10.05472 -3.08166,1.7824 -4.12482,4.21173 -4.11032,7.79879 0.13727,33.99646 0.10886,67.99362 0.10223,101.9906 -3.6e-4,1.97492 0.32969,4.00293 -0.53164,5.9358 -1.86661,0.80767 -3.19156,-0.49921 -4.57431,-1.25452 -34.06436,-18.60675 -68.09967,-37.26666 -102.18061,-55.84299 -2.86682,-1.56265 -4.48593,-3.23279 -4.4942,-6.88107 -0.0726,-31.99134 -0.19211,-63.98496 -0.71878,-95.97095 -0.11377,-6.90768 2.22626,-10.83884 8.30762,-14.14599 40.97739,-22.28409 81.76785,-44.91187 122.6196,-67.42698 0.72955,-0.4021 1.58154,-0.66043 2.186,-1.19937 8.10556,-7.22787 15.41953,-5.48648 24.51038,-0.34823 67.43909,38.11746 135.27777,75.52395 203.21228,112.75738 41.19977,22.58069 82.61133,44.762 124.00415,66.97989 4.25757,2.28525 5.72229,4.9216 5.71521,9.71115 -0.11536,77.99301 -0.0836,155.98642 0.0101,233.97958 0.0314,26.15918 0.23859,52.3194 0.59131,78.47608 0.06,4.45166 -1.56812,6.91809 -5.35694,9.07532 -57.17968,32.55566 -114.41278,65.02093 -171.36969,97.96325 -43.11163,24.93464 -85.84191,50.52826 -128.75781,75.80182 -11.05224,6.50885 -22.19031,12.87232 -33.23034,19.40161 -2.84681,1.68372 -5.3545,1.98322 -8.35358,0.20978 -32.83408,-19.41669 -66.81592,-36.85297 -99.00476,-57.38452 -0.81921,-0.52246 -1.56952,-1.15302 -2.29944,-1.69428 0.21609,-2.78247 2.52597,-3.14776 4.13443,-4.06335 65.87482,-37.4986 131.78305,-74.93841 197.66342,-112.42724 45.75397,-26.03602 91.43939,-52.19294 137.26392,-78.10383 4.32824,-2.44732 5.47607,-5.44867 5.45306,-10.04193 C 746.98657,695.8277 746.99029,660.6637 746.93701,625 Z"
         id="path2" /></g><text
       xml:space="preserve"
       style="font-style:normal;font-variant:normal;font-weight:bold;font-stretch:normal;font-size:44.4058px;font-family:'Droid Sans';-inkscape-font-specification:'Droid Sans Bold';text-align:center;text-anchor:middle;fill:#000000;fill-opacity:1;stroke-width:1.04076"
       x="345.98035"
       y="329.41315"
       id="text90"><tspan
         sodipodi:role="line"
         id="tspan90"
         x="345.98035"
         y="329.41315"
         style="stroke-width:1.04076">GitLink</tspan></text><text
       xml:space="preserve"
       style="font-style:normal;font-variant:normal;font-weight:normal;font-stretch:normal;font-size:17.3333px;font-family:'Droid Sans';-inkscape-font-specification:'Droid Sans';text-align:center;text-anchor:middle;fill:#000000;fill-opacity:1"
       x="348.10233"
       y="351.49881"
       id="text91"><tspan
         sodipodi:role="line"
         id="tspan91"
         x="348.10233"
         y="351.49881">An ASIET LAB Suite</tspan></text></g></svg>
